<svg width="173" height="41" viewBox="0 0 173 41" fill="none" xmlns="http://www.w3.org/2000/svg">
<path d="M9.4 30.28C7.58667 30.28 6 29.96 4.64 29.32C3.28 28.68 2.21333 27.8133 1.44 26.72C0.693333 25.6267 0.266667 24.4133 0.16 23.08H2.04C2.25333 24.5467 2.93333 25.8533 4.08 27C5.25333 28.1467 7.02667 28.72 9.4 28.72C10.7867 28.72 11.9867 28.4667 13 27.96C14.04 27.4533 14.84 26.76 15.4 25.88C15.96 25 16.24 24.0267 16.24 22.96C16.24 21.6 15.9067 20.52 15.24 19.72C14.6 18.92 13.7867 18.32 12.8 17.92C11.84 17.52 10.5333 17.0933 8.88 16.64C7.06667 16.16 5.6 15.68 4.48 15.2C3.38667 14.72 2.45333 13.9867 1.68 13C0.933334 11.9867 0.56 10.6133 0.56 8.88C0.56 7.54667 0.906667 6.33333 1.6 5.24C2.32 4.12 3.33333 3.24 4.64 2.6C5.94667 1.96 7.45333 1.64 9.16 1.64C11.64 1.64 13.64 2.25333 15.16 3.48C16.68 4.70666 17.5867 6.21333 17.88 8H15.96C15.8 7.28 15.44 6.54667 14.88 5.8C14.3467 5.05333 13.5733 4.44 12.56 3.96C11.5733 3.45333 10.3867 3.2 9 3.2C7.13333 3.2 5.56 3.72 4.28 4.76C3 5.77333 2.36 7.13333 2.36 8.84C2.36 10.2 2.69333 11.2933 3.36 12.12C4.02667 12.92 4.84 13.5333 5.8 13.96C6.78667 14.36 8.10667 14.7733 9.76 15.2C11.6 15.7067 13.0533 16.2 14.12 16.68C15.2133 17.1333 16.1333 17.8667 16.88 18.88C17.6533 19.8667 18.04 21.2133 18.04 22.92C18.04 24.1733 17.7067 25.36 17.04 26.48C16.3733 27.6 15.3867 28.52 14.08 29.24C12.8 29.9333 11.24 30.28 9.4 30.28ZM33.2684 7.84C35.8284 7.84 37.9218 8.64 39.5484 10.24C41.1751 11.8133 41.9884 14.16 41.9884 17.28V30H40.2284V17.4C40.2284 14.8133 39.5751 12.84 38.2684 11.48C36.9618 10.0933 35.1884 9.4 32.9484 9.4C30.6018 9.4 28.7218 10.1467 27.3084 11.64C25.9218 13.1333 25.2284 15.3467 25.2284 18.28V30H23.4284V0.4H25.2284V12.88C25.8418 11.2533 26.8684 10.0133 28.3084 9.16C29.7484 8.28 31.4018 7.84 33.2684 7.84ZM57.9103 30.32C55.8836 30.32 54.057 29.8667 52.4303 28.96C50.8036 28.0533 49.5236 26.76 48.5903 25.08C47.6836 23.3733 47.2303 21.3867 47.2303 19.12C47.2303 16.88 47.697 14.92 48.6303 13.24C49.5636 11.5333 50.8436 10.24 52.4703 9.36C54.1236 8.45333 55.9636 8 57.9903 8C60.017 8 61.8436 8.45333 63.4703 9.36C65.097 10.24 66.3636 11.52 67.2703 13.2C68.2036 14.88 68.6703 16.8533 68.6703 19.12C68.6703 21.3867 68.2036 23.3733 67.2703 25.08C66.337 26.76 65.0436 28.0533 63.3903 28.96C61.7636 29.8667 59.937 30.32 57.9103 30.32ZM57.9103 28.72C59.4836 28.72 60.9503 28.3733 62.3103 27.68C63.697 26.96 64.8036 25.88 65.6303 24.44C66.457 23 66.8703 21.2267 66.8703 19.12C66.8703 17.04 66.457 15.28 65.6303 13.84C64.8036 12.4 63.7103 11.3333 62.3503 10.64C60.9903 9.92 59.5236 9.56 57.9503 9.56C56.377 9.56 54.9103 9.92 53.5503 10.64C52.217 11.3333 51.137 12.4 50.3103 13.84C49.4836 15.28 49.0703 17.04 49.0703 19.12C49.0703 21.2267 49.4703 23 50.2703 24.44C51.097 25.88 52.177 26.96 53.5103 27.68C54.8703 28.3733 56.337 28.72 57.9103 28.72ZM75.9316 14C76.5449 12.24 77.6516 10.8 79.2516 9.68C80.8782 8.56 82.8382 8 85.1316 8C87.1582 8 88.9582 8.45333 90.5316 9.36C92.1316 10.2667 93.3716 11.56 94.2516 13.24C95.1582 14.92 95.6116 16.88 95.6116 19.12C95.6116 21.36 95.1582 23.3333 94.2516 25.04C93.3716 26.72 92.1316 28.0267 90.5316 28.96C88.9582 29.8667 87.1582 30.32 85.1316 30.32C82.8649 30.32 80.9182 29.76 79.2916 28.64C77.6916 27.4933 76.5716 26.0533 75.9316 24.32V40.24H74.1316V8.28H75.9316V14ZM93.7716 19.12C93.7716 17.1467 93.3982 15.44 92.6516 14C91.9049 12.56 90.8516 11.4667 89.4916 10.72C88.1582 9.94667 86.6116 9.56 84.8516 9.56C83.1716 9.56 81.6516 9.96 80.2916 10.76C78.9316 11.5333 77.8649 12.6533 77.0916 14.12C76.3182 15.56 75.9316 17.2267 75.9316 19.12C75.9316 21.04 76.3182 22.7333 77.0916 24.2C77.8649 25.64 78.9316 26.76 80.2916 27.56C81.6516 28.3333 83.1716 28.72 84.8516 28.72C86.6116 28.72 88.1582 28.3333 89.4916 27.56C90.8516 26.7867 91.9049 25.68 92.6516 24.24C93.3982 22.8 93.7716 21.0933 93.7716 19.12ZM115.766 30L102.846 16.76V30H101.046V1.92H102.846V15.28L115.766 1.92H118.086L104.406 16L118.126 30H115.766ZM121.176 19.12C121.176 16.88 121.616 14.92 122.496 13.24C123.402 11.56 124.642 10.2667 126.216 9.36C127.816 8.45333 129.629 8 131.656 8C133.949 8 135.896 8.56 137.496 9.68C139.096 10.8 140.216 12.2267 140.856 13.96V8.28H142.656V30H140.856V24.28C140.216 26.04 139.082 27.4933 137.456 28.64C135.856 29.76 133.922 30.32 131.656 30.32C129.629 30.32 127.816 29.8667 126.216 28.96C124.642 28.0267 123.402 26.72 122.496 25.04C121.616 23.3333 121.176 21.36 121.176 19.12ZM140.856 19.12C140.856 17.2267 140.456 15.56 139.656 14.12C138.882 12.6533 137.816 11.5333 136.456 10.76C135.096 9.96 133.576 9.56 131.896 9.56C130.136 9.56 128.589 9.94667 127.256 10.72C125.922 11.4667 124.882 12.56 124.136 14C123.389 15.44 123.016 17.1467 123.016 19.12C123.016 21.0933 123.389 22.8 124.136 24.24C124.882 25.68 125.922 26.7867 127.256 27.56C128.616 28.3333 130.162 28.72 131.896 28.72C133.576 28.72 135.096 28.3333 136.456 27.56C137.842 26.76 138.922 25.64 139.696 24.2C140.469 22.7333 140.856 21.04 140.856 19.12ZM151.01 12.76C151.543 11.16 152.49 9.94667 153.85 9.12C155.21 8.26667 156.943 7.84 159.05 7.84V9.72H158.45C156.316 9.72 154.543 10.3333 153.13 11.56C151.716 12.76 151.01 14.7333 151.01 17.48V30H149.21V8.28H151.01V12.76ZM165.874 9.84V24.2C165.874 25.8 166.167 26.9067 166.754 27.52C167.341 28.1067 168.381 28.4 169.874 28.4H172.314V30H169.594C167.701 30 166.301 29.56 165.394 28.68C164.514 27.7733 164.074 26.28 164.074 24.2V9.84H160.794V8.28H164.074V2.76H165.874V8.28H172.314V9.84H165.874Z" fill="white"/>
<path d="M4.64 29.32L5.0658 28.4152L4.64 29.32ZM1.44 26.72L0.614199 27.284L0.618836 27.2908L0.623585 27.2975L1.44 26.72ZM0.16 23.08V22.08H-0.923195L-0.836815 23.1597L0.16 23.08ZM2.04 23.08L3.02959 22.9361L2.90507 22.08H2.04V23.08ZM4.08 27L3.37285 27.7072L3.38107 27.7152L4.08 27ZM13 27.96L12.562 27.061L12.5528 27.0656L13 27.96ZM15.4 25.88L14.5563 25.3431L15.4 25.88ZM15.24 19.72L14.4591 20.3447L14.4654 20.3525L14.4718 20.3602L15.24 19.72ZM12.8 17.92L12.4154 18.8431L12.4243 18.8467L12.8 17.92ZM8.88 16.64L9.14444 15.6756L9.13589 15.6733L8.88 16.64ZM4.48 15.2L4.07799 16.1157L4.08608 16.1191L4.48 15.2ZM1.68 13L0.874944 13.5932L0.883768 13.6052L0.892944 13.6169L1.68 13ZM1.6 5.24L0.758806 4.69923L0.755491 4.70446L1.6 5.24ZM4.64 2.6L4.20013 1.70193H4.20013L4.64 2.6ZM17.88 8V9H19.0576L18.8668 7.83799L17.88 8ZM15.96 8L14.9838 8.21693L15.1578 9H15.96V8ZM14.88 5.8L14.0663 6.38124L14.073 6.3907L14.08 6.4L14.88 5.8ZM12.56 3.96L12.1032 4.84957L12.1174 4.85688L12.1319 4.86374L12.56 3.96ZM4.28 4.76L4.90075 5.54411L4.91059 5.53611L4.28 4.76ZM3.36 12.12L2.58159 12.7478L2.58663 12.754L2.59178 12.7602L3.36 12.12ZM5.8 13.96L5.39386 14.8738L5.40897 14.8805L5.42429 14.8867L5.8 13.96ZM9.76 15.2L10.0255 14.2359L10.0177 14.2337L10.0099 14.2317L9.76 15.2ZM14.12 16.68L13.7096 17.5919L13.7232 17.598L13.737 17.6037L14.12 16.68ZM16.88 18.88L16.0749 19.4732L16.0838 19.4852L16.0929 19.4969L16.88 18.88ZM17.04 26.48L16.1807 25.9685V25.9685L17.04 26.48ZM14.08 29.24L14.5563 30.1193L14.5626 30.1158L14.08 29.24ZM9.4 29.28C7.70397 29.28 6.26796 28.9809 5.0658 28.4152L4.2142 30.2248C5.73204 30.9391 7.46936 31.28 9.4 31.28V29.28ZM5.0658 28.4152C3.84259 27.8396 2.91825 27.0782 2.25642 26.1425L0.623585 27.2975C1.50841 28.5484 2.71741 29.5204 4.2142 30.2248L5.0658 28.4152ZM2.2658 26.156C1.61837 25.208 1.24975 24.1619 1.15682 23.0003L-0.836815 23.1597C-0.716415 24.6647 -0.231706 26.0453 0.614199 27.284L2.2658 26.156ZM0.16 24.08H2.04V22.08H0.16V24.08ZM1.05041 23.2239C1.29772 24.9241 2.089 26.4232 3.37289 27.7071L4.78711 26.2929C3.77767 25.2835 3.20895 24.1692 3.02959 22.9361L1.05041 23.2239ZM3.38107 27.7152C4.81066 29.1123 6.88197 29.72 9.4 29.72V27.72C7.17136 27.72 5.69601 27.181 4.77893 26.2848L3.38107 27.7152ZM9.4 29.72C10.9077 29.72 12.2674 29.4443 13.4472 28.8544L12.5528 27.0656C11.706 27.489 10.6656 27.72 9.4 27.72V29.72ZM13.438 28.859C14.6254 28.2805 15.5739 27.4694 16.2437 26.4169L14.5563 25.3431C14.1061 26.0506 13.4546 26.6262 12.562 27.061L13.438 28.859ZM16.2437 26.4169C16.9082 25.3726 17.24 24.2123 17.24 22.96H15.24C15.24 23.841 15.0118 24.6274 14.5563 25.3431L16.2437 26.4169ZM17.24 22.96C17.24 21.4386 16.8653 20.1083 16.0082 19.0798L14.4718 20.3602C14.948 20.9317 15.24 21.7614 15.24 22.96H17.24ZM16.0209 19.0953C15.2696 18.1562 14.3146 17.455 13.1757 16.9933L12.4243 18.8467C13.2587 19.185 13.9304 19.6838 14.4591 20.3447L16.0209 19.0953ZM13.1846 16.9969C12.1686 16.5736 10.8161 16.134 9.14443 15.6756L8.61557 17.6044C10.2505 18.0527 11.5114 18.4664 12.4154 18.8431L13.1846 16.9969ZM9.13589 15.6733C7.34744 15.1999 5.93206 14.7343 4.87392 14.2809L4.08608 16.1191C5.26794 16.6257 6.78589 17.1201 8.62411 17.6067L9.13589 15.6733ZM4.88199 14.2844C3.94729 13.874 3.14389 13.2467 2.46706 12.3831L0.892944 13.6169C1.76278 14.7267 2.82604 15.566 4.07801 16.1156L4.88199 14.2844ZM2.48506 12.4068C1.90493 11.6195 1.56 10.4787 1.56 8.88H-0.44C-0.44 10.7479 -0.0382603 12.3538 0.874944 13.5932L2.48506 12.4068ZM1.56 8.88C1.56 7.73033 1.85589 6.70374 2.44451 5.77554L0.755491 4.70446C-0.0425609 5.96292 -0.44 7.363 -0.44 8.88H1.56ZM2.44118 5.78076C3.05346 4.82832 3.92135 4.0655 5.07987 3.49806L4.20013 1.70193C2.74531 2.4145 1.58654 3.41168 0.758822 4.69924L2.44118 5.78076ZM5.07987 3.49806C6.22783 2.93579 7.57956 2.64 9.16 2.64V0.639997C7.32711 0.639997 5.6655 0.984203 4.20013 1.70193L5.07987 3.49806ZM9.16 2.64C11.4743 2.64 13.2332 3.21008 14.532 4.2582L15.788 2.7018C14.0468 1.29659 11.8057 0.639997 9.16 0.639997V2.64ZM14.532 4.2582C15.8771 5.34373 16.643 6.63782 16.8932 8.16201L18.8668 7.83799C18.5304 5.78884 17.4829 4.0696 15.788 2.7018L14.532 4.2582ZM17.88 7H15.96V9H17.88V7ZM16.9362 7.78307C16.7383 6.89264 16.3034 6.0312 15.68 5.2L14.08 6.4C14.5766 7.06213 14.8617 7.66735 14.9838 8.21693L16.9362 7.78307ZM15.6937 5.21876C15.0417 4.30589 14.1214 3.59311 12.9881 3.05626L12.1319 4.86374C13.0252 5.28689 13.6517 5.80078 14.0663 6.38124L15.6937 5.21876ZM13.0168 3.07043C11.8578 2.47529 10.5066 2.2 9 2.2V4.2C10.2667 4.2 11.2888 4.43138 12.1032 4.84957L13.0168 3.07043ZM9 2.2C6.93568 2.2 5.13102 2.78008 3.64941 3.98388L4.91059 5.53611C5.98898 4.65992 7.33099 4.2 9 4.2V2.2ZM3.6593 3.97595C2.12738 5.18872 1.36 6.84384 1.36 8.84H3.36C3.36 7.42283 3.87262 6.35795 4.9007 5.54404L3.6593 3.97595ZM1.36 8.84C1.36 10.3633 1.73538 11.6985 2.58159 12.7478L4.13841 11.4922C3.65128 10.8882 3.36 10.0367 3.36 8.84H1.36ZM2.59178 12.7602C3.35747 13.679 4.29507 14.3855 5.39386 14.8738L6.20614 13.0462C5.38493 12.6812 4.69587 12.161 4.12822 11.4798L2.59178 12.7602ZM5.42429 14.8867C6.46879 15.3102 7.8362 15.7363 9.51012 16.1683L10.0099 14.2317C8.37713 13.8104 7.10454 13.4098 6.17571 13.0333L5.42429 14.8867ZM9.49452 16.1641C11.3117 16.6645 12.7097 17.142 13.7096 17.5919L14.5304 15.7681C13.3969 15.258 11.8883 14.7488 10.0255 14.2359L9.49452 16.1641ZM13.737 17.6037C14.6514 17.9829 15.4291 18.5967 16.0749 19.4732L17.6851 18.2868C16.8375 17.1366 15.7753 16.2838 14.503 15.7563L13.737 17.6037ZM16.0929 19.4969C16.6859 20.2534 17.04 21.3569 17.04 22.92H19.04C19.04 21.0698 18.6208 19.4799 17.6671 18.2631L16.0929 19.4969ZM17.04 22.92C17.04 23.9859 16.7591 24.9968 16.1807 25.9685L17.8993 26.9915C18.6542 25.7232 19.04 24.3608 19.04 22.92H17.04ZM16.1807 25.9685C15.6175 26.9147 14.7712 27.7174 13.5974 28.3642L14.5626 30.1158C16.0021 29.3227 17.1292 28.2853 17.8993 26.9915L16.1807 25.9685ZM13.6037 28.3607C12.5036 28.9566 11.1167 29.28 9.4 29.28V31.28C11.3633 31.28 13.0964 30.9101 14.5563 30.1193L13.6037 28.3607ZM39.5484 10.24L38.8472 10.953L38.8532 10.9588L39.5484 10.24ZM41.9884 30V31H42.9884V30H41.9884ZM40.2284 30H39.2284V31H40.2284V30ZM38.2684 11.48L37.5406 12.1658L37.5473 12.1728L38.2684 11.48ZM27.3084 11.64L26.5821 10.9526L26.5756 10.9595L27.3084 11.64ZM25.2284 30V31H26.2284V30H25.2284ZM23.4284 30H22.4284V31H23.4284V30ZM23.4284 0.4V-0.6H22.4284V0.4H23.4284ZM25.2284 0.4H26.2284V-0.6H25.2284V0.4ZM25.2284 12.88H24.2284L26.1641 13.2328L25.2284 12.88ZM28.3084 9.16L28.8183 10.0204L28.8299 10.0133L28.3084 9.16ZM33.2684 8.84C35.601 8.84 37.431 9.55998 38.8472 10.9529L40.2497 9.52707C38.4125 7.72001 36.0559 6.84 33.2684 6.84V8.84ZM38.8532 10.9588C40.2206 12.2813 40.9884 14.3257 40.9884 17.28H42.9884C42.9884 13.9943 42.1297 11.3454 40.2437 9.52121L38.8532 10.9588ZM40.9884 17.28V30H42.9884V17.28H40.9884ZM41.9884 29H40.2284V31H41.9884V29ZM41.2284 30V17.4H39.2284V30H41.2284ZM41.2284 17.4C41.2284 14.6526 40.5329 12.3936 38.9895 10.7872L37.5473 12.1728C38.6173 13.2864 39.2284 14.9741 39.2284 17.4H41.2284ZM38.9962 10.7942C37.4673 9.17168 35.4113 8.4 32.9484 8.4V10.4C34.9655 10.4 36.4562 11.015 37.5406 12.1658L38.9962 10.7942ZM32.9484 8.4C30.3696 8.4 28.2117 9.23077 26.5821 10.9526L28.0347 12.3274C29.2318 11.0626 30.834 10.4 32.9484 10.4V8.4ZM26.5756 10.9595C24.9546 12.7052 24.2284 15.2044 24.2284 18.28H26.2284C26.2284 15.4889 26.8889 13.5614 28.0412 12.3204L26.5756 10.9595ZM24.2284 18.28V30H26.2284V18.28H24.2284ZM25.2284 29H23.4284V31H25.2284V29ZM24.4284 30V0.4H22.4284V30H24.4284ZM23.4284 1.4H25.2284V-0.6H23.4284V1.4ZM24.2284 0.4V12.88H26.2284V0.4H24.2284ZM26.1641 13.2328C26.7006 11.8099 27.5817 10.753 28.8182 10.0203L27.7986 8.29971C26.1551 9.27364 24.9829 10.6968 24.2927 12.5272L26.1641 13.2328ZM28.8299 10.0133C30.0965 9.23921 31.5657 8.84 33.2684 8.84V6.84C31.2379 6.84 29.4003 7.32079 27.787 8.30672L28.8299 10.0133ZM52.4303 28.96L52.9172 28.0865L52.4303 28.96ZM48.5903 25.08L47.7072 25.5492L47.7116 25.5574L47.7162 25.5656L48.5903 25.08ZM48.6303 13.24L49.5045 13.7257L49.5077 13.7198L48.6303 13.24ZM52.4703 9.36L52.9461 10.2396L52.9511 10.2368L52.4703 9.36ZM63.4703 9.36L62.9834 10.2335L62.9945 10.2395L63.4703 9.36ZM67.2703 13.2L66.3902 13.675L66.3962 13.6856L67.2703 13.2ZM67.2703 25.08L68.1445 25.5657L68.1477 25.5598L67.2703 25.08ZM63.3903 28.96L62.9095 28.0832L62.9035 28.0865L63.3903 28.96ZM62.3103 27.68L62.7645 28.5709L62.7711 28.5675L62.3103 27.68ZM65.6303 24.44L64.7631 23.9421L65.6303 24.44ZM65.6303 13.84L64.7631 14.3379V14.3379L65.6303 13.84ZM62.3503 10.64L61.8824 11.5238L61.8892 11.5274L61.8961 11.5309L62.3503 10.64ZM53.5503 10.64L54.0117 11.5272L54.0182 11.5238L53.5503 10.64ZM50.3103 13.84L51.1776 14.3379V14.3379L50.3103 13.84ZM50.2703 24.44L49.3961 24.9257L49.4031 24.9379L50.2703 24.44ZM53.5103 27.68L53.0352 28.5599L53.0456 28.5655L53.0561 28.5709L53.5103 27.68ZM57.9103 29.32C56.0386 29.32 54.382 28.903 52.9172 28.0865L51.9435 29.8335C53.7319 30.8303 55.7287 31.32 57.9103 31.32V29.32ZM52.9172 28.0865C51.4586 27.2735 50.3104 26.117 49.4645 24.5944L47.7162 25.5656C48.7369 27.403 50.1487 28.8331 51.9435 29.8335L52.9172 28.0865ZM49.4734 24.6108C48.6558 23.0717 48.2303 21.2514 48.2303 19.12H46.2303C46.2303 21.5219 46.7115 23.6749 47.7072 25.5492L49.4734 24.6108ZM48.2303 19.12C48.2303 17.0216 48.6664 15.2341 49.5045 13.7256L47.7562 12.7544C46.7275 14.6058 46.2303 16.7384 46.2303 19.12H48.2303ZM49.5077 13.7198C50.3535 12.1731 51.4981 11.0229 52.9461 10.2395L51.9945 8.48046C50.1892 9.45707 48.7738 10.8936 47.7529 12.7602L49.5077 13.7198ZM52.9511 10.2368C54.4462 9.41697 56.1188 9 57.9903 9V7C55.8085 7 53.8011 7.4897 51.9895 8.48319L52.9511 10.2368ZM57.9903 9C59.862 9 61.5186 9.41699 62.9835 10.2335L63.9572 8.48652C62.1687 7.48967 60.1719 7 57.9903 7V9ZM62.9945 10.2395C64.4442 11.0238 65.5729 12.1604 66.3903 13.6749L68.1503 12.7251C67.1544 10.8796 65.7498 9.45621 63.9461 8.48046L62.9945 10.2395ZM66.3962 13.6856C67.2333 15.1925 67.6703 16.9927 67.6703 19.12H69.6703C69.6703 16.714 69.174 14.5675 68.1445 12.7144L66.3962 13.6856ZM67.6703 19.12C67.6703 21.2468 67.2334 23.0633 66.3929 24.6002L68.1477 25.5598C69.1739 23.6834 69.6703 21.5265 69.6703 19.12H67.6703ZM66.3962 24.5944C65.5526 26.1128 64.3941 27.269 62.9095 28.0832L63.8711 29.8368C65.6932 28.8376 67.1214 27.4072 68.1445 25.5656L66.3962 24.5944ZM62.9035 28.0865C61.4386 28.903 59.782 29.32 57.9103 29.32V31.32C60.0919 31.32 62.0887 30.8303 63.8772 29.8335L62.9035 28.0865ZM57.9103 29.72C59.6365 29.72 61.2594 29.3382 62.7645 28.5709L61.8561 26.7891C60.6412 27.4085 59.3308 27.72 57.9103 27.72V29.72ZM62.7711 28.5675C64.3386 27.7536 65.5818 26.5331 66.4976 24.9379L64.7631 23.9421C64.0255 25.2269 63.0553 26.1664 61.8495 26.7925L62.7711 28.5675ZM66.4976 24.9379C67.4316 23.3108 67.8703 21.3552 67.8703 19.12H65.8703C65.8703 21.0981 65.4823 22.6892 64.7631 23.9421L66.4976 24.9379ZM67.8703 19.12C67.8703 16.9089 67.4306 14.9674 66.4976 13.3421L64.7631 14.3379C65.4834 15.5926 65.8703 17.1711 65.8703 19.12H67.8703ZM66.4976 13.3421C65.5831 11.7492 64.3526 10.5383 62.8045 9.74909L61.8961 11.5309C63.0681 12.1284 64.0242 13.0508 64.7631 14.3379L66.4976 13.3421ZM62.8182 9.75621C61.3107 8.95814 59.6829 8.56 57.9503 8.56V10.56C59.3643 10.56 60.6699 10.8819 61.8824 11.5238L62.8182 9.75621ZM57.9503 8.56C56.2177 8.56 54.5899 8.95814 53.0824 9.75621L54.0182 11.5238C55.2307 10.8819 56.5363 10.56 57.9503 10.56V8.56ZM53.089 9.75278C51.5683 10.5435 50.3546 11.7542 49.4431 13.3421L51.1776 14.3379C51.9193 13.0458 52.8656 12.1231 54.0117 11.5272L53.089 9.75278ZM49.4431 13.3421C48.51 14.9674 48.0703 16.9089 48.0703 19.12H50.0703C50.0703 17.1711 50.4573 15.5926 51.1776 14.3379L49.4431 13.3421ZM48.0703 19.12C48.0703 21.3503 48.4937 23.3013 49.3962 24.9256L51.1445 23.9544C50.4469 22.6987 50.0703 21.103 50.0703 19.12H48.0703ZM49.4031 24.9379C50.3132 26.5232 51.5226 27.7431 53.0352 28.5599L53.9855 26.8001C52.8313 26.1769 51.8808 25.2368 51.1376 23.9421L49.4031 24.9379ZM53.0561 28.5709C54.5612 29.3382 56.1841 29.72 57.9103 29.72V27.72C56.4899 27.72 55.1794 27.4085 53.9645 26.7891L53.0561 28.5709ZM75.9316 14H74.9316L76.8759 14.3291L75.9316 14ZM79.2516 9.68L78.6844 8.85633L78.6781 8.86077L79.2516 9.68ZM90.5316 9.36L90.0322 10.2265L90.0386 10.23L90.5316 9.36ZM94.2516 13.24L93.3657 13.704L93.3715 13.7149L94.2516 13.24ZM94.2516 25.04L93.3684 24.5708L93.3657 24.576L94.2516 25.04ZM90.5316 28.96L91.0309 29.8264L91.0354 29.8238L90.5316 28.96ZM79.2916 28.64L78.709 29.4528L78.7167 29.4583L78.7245 29.4636L79.2916 28.64ZM75.9316 24.32L76.8697 23.9736L74.9316 24.32H75.9316ZM75.9316 40.24V41.24H76.9316V40.24H75.9316ZM74.1316 40.24H73.1316V41.24H74.1316V40.24ZM74.1316 8.28V7.28H73.1316V8.28H74.1316ZM75.9316 8.28H76.9316V7.28H75.9316V8.28ZM92.6516 14L91.7638 14.4603L92.6516 14ZM89.4916 10.72L88.9898 11.585L89 11.5909L89.0103 11.5966L89.4916 10.72ZM80.2916 10.76L80.7859 11.6293L80.7923 11.6257L80.7986 11.6219L80.2916 10.76ZM77.0916 14.12L77.9726 14.5931L77.9761 14.5864L77.0916 14.12ZM77.0916 24.2L76.207 24.6664L76.2106 24.6731L77.0916 24.2ZM80.2916 27.56L79.7845 28.4219L79.7909 28.4257L79.7973 28.4293L80.2916 27.56ZM89.4916 27.56L88.9972 26.6907L88.9898 26.695L89.4916 27.56ZM76.8759 14.3291C77.4167 12.7772 78.3883 11.505 79.825 10.4992L78.6781 8.86077C76.9149 10.095 75.6731 11.7028 74.9873 13.6709L76.8759 14.3291ZM79.8187 10.5036C81.2528 9.51618 83.0072 9 85.1316 9V7C82.6693 7 80.5036 7.60382 78.6845 8.85635L79.8187 10.5036ZM85.1316 9C87.0038 9 88.6279 9.4171 90.0323 10.2264L91.0309 8.49357C89.2886 7.48956 87.3127 7 85.1316 7V9ZM90.0386 10.23C91.4659 11.0388 92.572 12.1887 93.3657 13.704L95.1374 12.776C94.1711 10.9313 92.7973 9.4945 91.0246 8.48998L90.0386 10.23ZM93.3715 13.7149C94.1868 15.2256 94.6116 17.017 94.6116 19.12H96.6116C96.6116 16.743 96.1296 14.6144 95.1316 12.7651L93.3715 13.7149ZM94.6116 19.12C94.6116 21.2226 94.187 23.0301 93.3684 24.5708L95.1347 25.5092C96.1295 23.6366 96.6116 21.4974 96.6116 19.12H94.6116ZM93.3657 24.576C92.5708 26.0937 91.4613 27.26 90.0277 28.0962L91.0354 29.8238C92.8018 28.7934 94.1724 27.3463 95.1374 25.504L93.3657 24.576ZM90.0323 28.0936C88.6279 28.9029 87.0038 29.32 85.1316 29.32V31.32C87.3127 31.32 89.2886 30.8304 91.0309 29.8264L90.0323 28.0936ZM85.1316 29.32C83.0365 29.32 81.2948 28.8051 79.8587 27.8164L78.7245 29.4636C80.5417 30.7149 82.6932 31.32 85.1316 31.32V29.32ZM79.8741 27.8272C78.4254 26.789 77.4358 25.5069 76.8697 23.9736L74.9935 24.6664C75.7073 26.5997 76.9577 28.1977 78.709 29.4528L79.8741 27.8272ZM74.9316 24.32V40.24H76.9316V24.32H74.9316ZM75.9316 39.24H74.1316V41.24H75.9316V39.24ZM75.1316 40.24V8.28H73.1316V40.24H75.1316ZM74.1316 9.28H75.9316V7.28H74.1316V9.28ZM74.9316 8.28V14H76.9316V8.28H74.9316ZM94.7716 19.12C94.7716 17.0207 94.374 15.1495 93.5393 13.5397L91.7638 14.4603C92.4224 15.7305 92.7716 17.2726 92.7716 19.12H94.7716ZM93.5393 13.5397C92.7058 11.9322 91.5148 10.69 89.9728 9.84342L89.0103 11.5966C90.1884 12.2434 91.104 13.1878 91.7638 14.4603L93.5393 13.5397ZM89.9933 9.85497C88.487 8.9813 86.7624 8.56 84.8516 8.56V10.56C86.4608 10.56 87.8295 10.912 88.9898 11.585L89.9933 9.85497ZM84.8516 8.56C83.0053 8.56 81.3082 9.00178 79.7845 9.89806L80.7986 11.6219C81.9949 10.9182 83.3379 10.56 84.8516 10.56V8.56ZM79.7973 9.89071C78.2613 10.7641 77.0637 12.0287 76.207 13.6536L77.9761 14.5864C78.6661 13.2779 79.6018 12.3026 80.7859 11.6293L79.7973 9.89071ZM76.2106 13.6469C75.3475 15.2539 74.9316 17.0878 74.9316 19.12H76.9316C76.9316 17.3655 77.2889 15.8661 77.9726 14.5931L76.2106 13.6469ZM74.9316 19.12C74.9316 21.1767 75.3467 23.0348 76.207 24.6664L77.9761 23.7336C77.2898 22.4319 76.9316 20.9033 76.9316 19.12H74.9316ZM76.2106 24.6731C77.0673 26.2685 78.2608 27.5256 79.7845 28.4219L80.7986 26.6981C79.6023 25.9944 78.6625 25.0115 77.9726 23.7269L76.2106 24.6731ZM79.7973 28.4293C81.319 29.2946 83.0115 29.72 84.8516 29.72V27.72C83.3317 27.72 81.9841 27.3721 80.7859 26.6907L79.7973 28.4293ZM84.8516 29.72C86.7624 29.72 88.487 29.2987 89.9933 28.425L88.9898 26.695C87.8295 27.368 86.4608 27.72 84.8516 27.72V29.72ZM89.9859 28.4293C91.5202 27.5568 92.7072 26.3051 93.5393 24.7003L91.7638 23.7797C91.1026 25.0549 90.183 26.0165 88.9973 26.6907L89.9859 28.4293ZM93.5393 24.7003C94.374 23.0905 94.7716 21.2193 94.7716 19.12H92.7716C92.7716 20.9674 92.4224 22.5095 91.7638 23.7797L93.5393 24.7003ZM115.766 30L115.05 30.6984L115.344 31H115.766V30ZM102.846 16.76L103.561 16.0616L101.846 14.3034V16.76H102.846ZM102.846 30V31H103.846V30H102.846ZM101.046 30H100.046V31H101.046V30ZM101.046 1.92V0.919999H100.046V1.92H101.046ZM102.846 1.92H103.846V0.919999H102.846V1.92ZM102.846 15.28H101.846V17.7526L103.564 15.9752L102.846 15.28ZM115.766 1.92V0.919999H115.342L115.047 1.22483L115.766 1.92ZM118.086 1.92L118.803 2.61684L120.451 0.919999H118.086V1.92ZM104.406 16L103.688 15.3032L103.008 16.003L103.691 16.6999L104.406 16ZM118.126 30V31H120.506L118.84 29.3001L118.126 30ZM116.481 29.3016L103.561 16.0616L102.13 17.4584L115.05 30.6984L116.481 29.3016ZM101.846 16.76V30H103.846V16.76H101.846ZM102.846 29H101.046V31H102.846V29ZM102.046 30V1.92H100.046V30H102.046ZM101.046 2.92H102.846V0.919999H101.046V2.92ZM101.846 1.92V15.28H103.846V1.92H101.846ZM103.564 15.9752L116.484 2.61517L115.047 1.22483L102.127 14.5848L103.564 15.9752ZM115.766 2.92H118.086V0.919999H115.766V2.92ZM117.368 1.22315L103.688 15.3032L105.123 16.6968L118.803 2.61684L117.368 1.22315ZM103.691 16.6999L117.411 30.6999L118.84 29.3001L105.12 15.3001L103.691 16.6999ZM118.126 29H115.766V31H118.126V29ZM122.496 13.24L121.616 12.765L121.61 12.776L122.496 13.24ZM126.216 9.36L125.723 8.48995L125.716 8.49357L126.216 9.36ZM137.496 9.68L138.069 8.86077L137.496 9.68ZM140.856 13.96L139.918 14.3064L141.856 13.96H140.856ZM140.856 8.28V7.28H139.856V8.28H140.856ZM142.656 8.28H143.656V7.28H142.656V8.28ZM142.656 30V31H143.656V30H142.656ZM140.856 30H139.856V31H140.856V30ZM140.856 24.28H141.856L139.916 23.9383L140.856 24.28ZM137.456 28.64L138.029 29.4592L138.032 29.4573L137.456 28.64ZM126.216 28.96L125.705 29.8201L125.714 29.8251L125.723 29.83L126.216 28.96ZM122.496 25.04L121.607 25.4983L121.611 25.5067L121.616 25.5149L122.496 25.04ZM139.656 14.12L138.771 14.5864L138.776 14.5961L138.781 14.6056L139.656 14.12ZM136.456 10.76L135.949 11.6219L135.955 11.6257L135.961 11.6293L136.456 10.76ZM127.256 10.72L127.744 11.5925L127.751 11.5888L127.757 11.585L127.256 10.72ZM124.136 14L125.023 14.4603L124.136 14ZM124.136 24.24L125.023 23.7797L124.136 24.24ZM127.256 27.56L126.754 28.4251L126.761 28.4293L127.256 27.56ZM136.456 27.56L136.95 28.4293L136.955 28.4262L136.456 27.56ZM139.696 24.2L140.577 24.6731L140.58 24.6664L139.696 24.2ZM122.176 19.12C122.176 17.0124 122.589 15.217 123.381 13.704L121.61 12.776C120.642 14.623 120.176 16.7476 120.176 19.12H122.176ZM123.376 13.7149C124.199 12.1895 125.311 11.0356 126.715 10.2264L125.716 8.49357C123.974 9.49774 122.606 10.9305 121.616 12.7651L123.376 13.7149ZM126.709 10.23C128.143 9.41704 129.784 9 131.656 9V7C129.474 7 127.488 7.48963 125.723 8.48998L126.709 10.23ZM131.656 9C133.781 9 135.518 9.51632 136.922 10.4992L138.069 8.86077C136.273 7.60368 134.117 7 131.656 7V9ZM136.922 10.4992C138.365 11.5095 139.352 12.7753 139.918 14.3064L141.794 13.6136C141.079 11.678 139.826 10.0905 138.069 8.86077L136.922 10.4992ZM141.856 13.96V8.28H139.856V13.96H141.856ZM140.856 9.28H142.656V7.28H140.856V9.28ZM141.656 8.28V30H143.656V8.28H141.656ZM142.656 29H140.856V31H142.656V29ZM141.856 30V24.28H139.856V30H141.856ZM139.916 23.9383C139.35 25.494 138.35 26.7859 136.879 27.8227L138.032 29.4573C139.814 28.2008 141.081 26.586 141.795 24.6217L139.916 23.9383ZM136.882 27.8208C135.476 28.805 133.751 29.32 131.656 29.32V31.32C134.094 31.32 136.235 30.715 138.029 29.4592L136.882 27.8208ZM131.656 29.32C129.784 29.32 128.143 28.903 126.709 28.09L125.723 29.83C127.488 30.8304 129.474 31.32 131.656 31.32V29.32ZM126.726 28.0999C125.315 27.2632 124.2 26.0928 123.376 24.5651L121.616 25.5149C122.604 27.3472 123.969 28.7901 125.705 29.8201L126.726 28.0999ZM123.384 24.5817C122.589 23.0386 122.176 21.2271 122.176 19.12H120.176C120.176 21.4929 120.642 23.628 121.607 25.4983L123.384 24.5817ZM141.856 19.12C141.856 17.0824 141.424 15.2438 140.53 13.6344L138.781 14.6056C139.487 15.8762 139.856 17.371 139.856 19.12H141.856ZM140.54 13.6536C139.683 12.0287 138.486 10.7641 136.95 9.89071L135.961 11.6293C137.145 12.3026 138.081 13.2779 138.771 14.5864L140.54 13.6536ZM136.963 9.89806C135.439 9.00178 133.742 8.56 131.896 8.56V10.56C133.409 10.56 134.752 10.9182 135.949 11.6219L136.963 9.89806ZM131.896 8.56C129.985 8.56 128.26 8.9813 126.754 9.85497L127.757 11.585C128.918 10.912 130.286 10.56 131.896 10.56V8.56ZM126.767 9.84749C125.253 10.6956 124.079 11.9374 123.248 13.5397L125.023 14.4603C125.686 13.1826 126.592 12.2377 127.744 11.5925L126.767 9.84749ZM123.248 13.5397C122.413 15.1495 122.016 17.0207 122.016 19.12H124.016C124.016 17.2726 124.365 15.7305 125.023 14.4603L123.248 13.5397ZM122.016 19.12C122.016 21.2193 122.413 23.0905 123.248 24.7003L125.023 23.7797C124.365 22.5095 124.016 20.9674 124.016 19.12H122.016ZM123.248 24.7003C124.077 26.2999 125.247 27.5511 126.754 28.425L127.757 26.695C126.597 26.0222 125.687 25.0601 125.023 23.7797L123.248 24.7003ZM126.761 28.4293C128.288 29.2973 130.008 29.72 131.896 29.72V27.72C130.316 27.72 128.943 27.3694 127.75 26.6907L126.761 28.4293ZM131.896 29.72C133.736 29.72 135.428 29.2946 136.95 28.4293L135.961 26.6907C134.763 27.3721 133.416 27.72 131.896 27.72V29.72ZM136.955 28.4262C138.507 27.5312 139.717 26.2734 140.577 24.6731L138.815 23.7269C138.127 25.0066 137.178 25.9888 135.956 26.6938L136.955 28.4262ZM140.58 24.6664C141.441 23.0348 141.856 21.1767 141.856 19.12H139.856C139.856 20.9033 139.497 22.4319 138.811 23.7336L140.58 24.6664ZM151.01 12.76H150.01L151.958 13.0762L151.01 12.76ZM153.85 9.12L154.369 9.97452L154.375 9.97083L154.381 9.96706L153.85 9.12ZM159.05 7.84H160.05V6.84H159.05V7.84ZM159.05 9.72V10.72H160.05V9.72H159.05ZM153.13 11.56L153.777 12.3223L153.785 12.3152L153.13 11.56ZM151.01 30V31H152.01V30H151.01ZM149.21 30H148.21V31H149.21V30ZM149.21 8.28V7.28H148.21V8.28H149.21ZM151.01 8.28H152.01V7.28H151.01V8.28ZM151.958 13.0762C152.422 11.6863 153.224 10.6705 154.369 9.97452L153.33 8.26548C151.755 9.22283 150.664 10.6337 150.061 12.4438L151.958 13.0762ZM154.381 9.96706C155.539 9.24035 157.074 8.84 159.05 8.84V6.84C156.812 6.84 154.88 7.29298 153.318 8.27294L154.381 9.96706ZM158.05 7.84V9.72H160.05V7.84H158.05ZM159.05 8.72H158.45V10.72H159.05V8.72ZM158.45 8.72C156.111 8.72 154.095 9.39822 152.474 10.8048L153.785 12.3152C154.991 11.2684 156.521 10.72 158.45 10.72V8.72ZM152.482 10.7977C150.755 12.2645 150.01 14.5839 150.01 17.48H152.01C152.01 14.8828 152.678 13.2555 153.777 12.3223L152.482 10.7977ZM150.01 17.48V30H152.01V17.48H150.01ZM151.01 29H149.21V31H151.01V29ZM150.21 30V8.28H148.21V30H150.21ZM149.21 9.28H151.01V7.28H149.21V9.28ZM150.01 8.28V12.76H152.01V8.28H150.01ZM165.874 9.84V8.84H164.874V9.84H165.874ZM166.754 27.52L166.031 28.2112L166.039 28.2192L166.047 28.2271L166.754 27.52ZM172.314 28.4H173.314V27.4H172.314V28.4ZM172.314 30V31H173.314V30H172.314ZM165.394 28.68L164.676 29.3765L164.687 29.3872L164.698 29.3976L165.394 28.68ZM164.074 9.84H165.074V8.84H164.074V9.84ZM160.794 9.84H159.794V10.84H160.794V9.84ZM160.794 8.28V7.28H159.794V8.28H160.794ZM164.074 8.28V9.28H165.074V8.28H164.074ZM164.074 2.76V1.76H163.074V2.76H164.074ZM165.874 2.76H166.874V1.76H165.874V2.76ZM165.874 8.28H164.874V9.28H165.874V8.28ZM172.314 8.28H173.314V7.28H172.314V8.28ZM172.314 9.84V10.84H173.314V9.84H172.314ZM164.874 9.84V24.2H166.874V9.84H164.874ZM164.874 24.2C164.874 25.8552 165.164 27.3043 166.031 28.2112L167.477 26.8288C167.171 26.509 166.874 25.7448 166.874 24.2H164.874ZM166.047 28.2271C166.924 29.1042 168.309 29.4 169.874 29.4V27.4C168.452 27.4 167.757 27.1092 167.461 26.8129L166.047 28.2271ZM169.874 29.4H172.314V27.4H169.874V29.4ZM171.314 28.4V30H173.314V28.4H171.314ZM172.314 29H169.594V31H172.314V29ZM169.594 29C167.833 29 166.736 28.5885 166.091 27.9624L164.698 29.3976C165.866 30.5315 167.568 31 169.594 31V29ZM166.112 27.9835C165.499 27.3528 165.074 26.179 165.074 24.2H163.074C163.074 26.381 163.529 28.1939 164.676 29.3765L166.112 27.9835ZM165.074 24.2V9.84H163.074V24.2H165.074ZM164.074 8.84H160.794V10.84H164.074V8.84ZM161.794 9.84V8.28H159.794V9.84H161.794ZM160.794 9.28H164.074V7.28H160.794V9.28ZM165.074 8.28V2.76H163.074V8.28H165.074ZM164.074 3.76H165.874V1.76H164.074V3.76ZM164.874 2.76V8.28H166.874V2.76H164.874ZM165.874 9.28H172.314V7.28H165.874V9.28ZM171.314 8.28V9.84H173.314V8.28H171.314ZM172.314 8.84H165.874V10.84H172.314V8.84Z" fill="white"/>
</svg>
